<?xml version="1.0" encoding="UTF-8"?>
<svg version="1.1" xmlns="http://www.w3.org/2000/svg" width="500" height="500">
<path d="M0 0 C1.19496094 0.01353516 2.38992187 0.02707031 3.62109375 0.04101562 C6.539548 0.07603708 9.45702348 0.12515007 12.375 0.1875 C12.37443446 1.26865271 12.37443446 1.26865271 12.3738575 2.37164688 C12.36672454 19.95100615 12.39278078 37.53000702 12.4552784 55.10925674 C12.48471136 63.6106632 12.50312096 72.11182079 12.49511719 80.61328125 C12.48816539 88.02760035 12.50236813 95.44153388 12.54143608 102.85575843 C12.56137738 106.77766893 12.57108997 110.69897495 12.55542374 114.62091827 C12.54097739 118.32144485 12.55506757 122.02082301 12.58995247 125.72120285 C12.60157358 127.70843626 12.58392161 129.6957754 12.5650177 131.68295288 C12.68306256 140.26458939 14.36221886 147.09495169 19.375 154.1875 C21.02780981 155.53797225 22.69194972 156.87490817 24.375 158.1875 C24.375 158.8475 24.375 159.5075 24.375 160.1875 C25.10095871 160.33083771 25.82691742 160.47417542 26.57487488 160.62185669 C28.28750545 160.9678191 29.9972907 161.32882932 31.7011261 161.71578979 C39.96804962 163.45875292 48.13982599 163.4437582 56.54296875 163.3828125 C58.07424228 163.37907351 59.60551824 163.37623073 61.13679504 163.37423706 C65.12996244 163.36667026 69.12297993 163.34708321 73.11608887 163.3248291 C77.20562717 163.30421918 81.29519015 163.29520325 85.38476562 163.28515625 C93.38157854 163.26382936 101.37827052 163.22977954 109.375 163.1875 C109.36500725 161.96839935 109.36500725 161.96839935 109.35481262 160.72467041 C109.29438021 153.0171668 109.24886381 145.30978016 109.21956348 137.60210037 C109.20399286 133.64071692 109.18291471 129.67953134 109.14868164 125.71826172 C109.11577753 121.88622885 109.09808253 118.05438476 109.09036827 114.22222137 C109.08487986 112.76957991 109.07416463 111.31694727 109.05780983 109.86438751 C108.8538581 90.97702821 113.38300712 78.34490899 125.99609375 64.39453125 C127.375 63.1875 127.375 63.1875 129.375 63.1875 C129.375 62.5275 129.375 61.8675 129.375 61.1875 C145.41208505 51.19990709 162.41506509 46.72818934 181.40234375 50.94921875 C187.38310088 52.71483316 192.91557381 55.19016798 198.375 58.1875 C198.375 58.8475 198.375 59.5075 198.375 60.1875 C199.179375 60.5278125 199.179375 60.5278125 200 60.875 C210.44332204 66.64630955 215.90761987 77.69693972 219.68359375 88.65234375 C221.41208319 94.99013836 221.52340267 101.08145567 221.52217102 107.60276794 C221.52584771 108.65086752 221.5295244 109.69896709 221.5333125 110.77882725 C221.5443248 114.29062615 221.54818905 117.80239543 221.55200195 121.31420898 C221.55826853 123.83259678 221.56491551 126.35098365 221.57191467 128.86936951 C221.59112174 136.42651582 221.60174049 143.98365692 221.61064246 151.5408214 C221.61503263 155.10576294 221.62039758 158.67070301 221.62563133 162.23564339 C221.64264027 174.09715052 221.65713204 185.95865676 221.66438007 197.82017422 C221.66628975 200.89533426 221.66821011 203.97049429 221.67016602 207.0456543 C221.67064976 207.80990524 221.6711335 208.57415619 221.6716319 209.36156625 C221.67992331 221.7280294 221.70524668 234.09439554 221.73774669 246.46081638 C221.77089181 259.17711023 221.78883559 271.89335491 221.79202431 284.60969216 C221.79418265 291.74132022 221.80283139 298.87280686 221.82848549 306.00439262 C221.85258612 312.71936851 221.85597166 319.43404705 221.84572411 326.14907265 C221.84523029 328.60516073 221.85150494 331.06126159 221.86528015 333.5173111 C221.93321479 346.35452199 221.75950603 358.00856568 217.375 370.1875 C217.0723589 371.0323014 216.76971781 371.87710279 216.45790577 372.74750423 C215.72947241 374.68514974 214.92733324 376.5572394 214.0625 378.4375 C213.76327637 379.10096436 213.46405273 379.76442871 213.15576172 380.44799805 C201.29998326 406.07347839 178.61773761 426.90583041 152.375 437.1875 C134.72346951 443.33573666 134.72346951 443.33573666 126.07421875 443.28515625 C125.09775391 443.28193359 124.12128906 443.27871094 123.11523438 443.27539062 C121.60413086 443.26282227 121.60413086 443.26282227 120.0625 443.25 C119.03576172 443.24548828 118.00902344 443.24097656 116.95117188 443.23632812 C114.42572118 443.22458184 111.90039095 443.20815565 109.375 443.1875 C109.1999075 432.87512891 109.0344782 422.56262327 108.875 412.25 C108.86297546 411.47646431 108.85095093 410.70292862 108.83856201 409.90595245 C108.45546475 385.14426771 108.27592243 360.39417091 108.41210938 335.62915039 C108.45659252 325.94521471 108.45112633 316.2769532 108 306.6015625 C107.9537146 305.48846207 107.9537146 305.48846207 107.90649414 304.35287476 C107.63314074 299.41809285 106.69288179 294.95209802 105.375 290.1875 C104.715 290.1875 104.055 290.1875 103.375 290.1875 C102.7871875 289.07375 102.7871875 289.07375 102.1875 287.9375 C99.72773184 284.20543796 97.35470737 283.2122634 93.375 281.1875 C92.50751129 280.64629013 92.50751129 280.64629013 91.62249756 280.09414673 C88.40620871 278.79668692 85.26900969 278.87911145 81.85253906 278.86865234 C81.10093002 278.85860672 80.34932098 278.8485611 79.57493591 278.83821106 C77.09683987 278.80738241 74.61885186 278.79034496 72.140625 278.7734375 C70.41997346 278.75472558 68.69933109 278.73515215 66.97869873 278.7147522 C62.45454313 278.66342747 57.93035778 278.62380358 53.40606689 278.58660889 C48.78756346 278.54657138 44.16918382 278.49547788 39.55078125 278.4453125 C30.49227446 278.34854918 21.43369778 278.26414567 12.375 278.1875 C12.37944122 279.04670044 12.38388245 279.90590088 12.38845825 280.7911377 C12.42863171 288.91194497 12.45903345 297.03271857 12.47862434 305.1536026 C12.48903499 309.32803101 12.50314419 313.50237689 12.52587891 317.67675781 C12.5477047 321.70976059 12.55958906 325.74268427 12.56475449 329.77574158 C12.56843283 331.30982202 12.57561551 332.84389843 12.58646011 334.37794495 C12.68660536 349.13925767 12.68660536 349.13925767 10.375 356.1875 C10.12621094 357.03957031 9.87742187 357.89164062 9.62109375 358.76953125 C4.77323745 372.14212036 -5.6535544 381.68369092 -18.16772461 387.77856445 C-32.00286247 394.19209626 -48.09442205 395.58641934 -62.82421875 391.2265625 C-79.37905208 385.08488096 -89.54936398 375.99152633 -97.04296875 360.19921875 C-103.27062998 345.02350999 -101.77188755 327.74623445 -101.75439453 311.61669922 C-101.75575269 309.49242625 -101.75753494 307.36815352 -101.75970459 305.24388123 C-101.76423129 299.51832159 -101.76250865 293.79278014 -101.7593255 288.06722021 C-101.75677516 282.0410797 -101.75914703 276.01494063 -101.76071167 269.98880005 C-101.76252644 259.86655399 -101.76014614 249.74431525 -101.75537109 239.62207031 C-101.74993866 227.97286067 -101.75168653 216.32366855 -101.7571975 204.67445934 C-101.76175899 194.62461762 -101.76236414 184.57478113 -101.75975883 174.5249387 C-101.75821154 168.54409761 -101.75795912 162.56326471 -101.76129532 156.58242416 C-101.7642181 150.94997159 -101.76211879 145.31754123 -101.75640106 139.68509102 C-101.75509642 137.6366956 -101.75542762 135.58829826 -101.75766373 133.53990364 C-101.76798852 123.10687722 -101.64403917 112.69248875 -101.21456909 102.2673645 C-101.1805465 101.36796296 -101.14652392 100.46856142 -101.11147034 99.54190528 C-100.74781347 91.69360439 -99.2936698 84.60186192 -96.625 77.1875 C-96.3367334 76.38505859 -96.0484668 75.58261719 -95.75146484 74.75585938 C-92.28425372 65.29565419 -88.838469 56.20794723 -82.625 48.1875 C-82.0784375 47.37023437 -81.531875 46.55296875 -80.96875 45.7109375 C-73.07644685 34.10657651 -62.70586219 23.41888134 -50.625 16.1875 C-50.02929199 15.82817383 -49.43358398 15.46884766 -48.81982422 15.09863281 C-40.70460024 10.24350744 -32.71947324 5.93347668 -23.625 3.1875 C-22.97030731 2.94566986 -22.31561462 2.70383972 -21.64108276 2.4546814 C-14.36790695 -0.05802196 -7.63868785 -0.16605843 0 0 Z " fill="#00B7EA" transform="translate(191.625,32.8125)"/>
<path d="M0 0 C0 0.66 0 1.32 0 2 C0.53625 2.226875 1.0725 2.45375 1.625 2.6875 C12.06832204 8.45880955 17.53261987 19.50943972 21.30859375 30.46484375 C22.71836324 35.63399853 23.12437424 40.56223633 23.12025452 45.90963745 C23.12110894 46.58038303 23.12196337 47.25112862 23.12284368 47.94219983 C23.12448287 50.17617524 23.11900283 52.41007455 23.11352539 54.64404297 C23.11324316 56.25081887 23.11340196 57.8575949 23.1139679 59.46437073 C23.11425445 63.81719373 23.10838058 68.1699891 23.10139394 72.52280569 C23.09513686 77.07518975 23.09455474 81.62757446 23.09336853 86.17996216 C23.09026216 94.79647329 23.08205812 103.4129717 23.07201904 112.02947724 C23.06083635 121.84079435 23.05534202 131.65211208 23.05032361 141.46343398 C23.03987494 161.64229641 23.02228893 181.8211474 23 202 C22.67 202 22.34 202 22 202 C21.79246094 200.89785156 21.58492188 199.79570312 21.37109375 198.66015625 C16.62819816 174.77572013 6.36622717 155.11910903 -11 138 C-11.72574219 137.26394531 -12.45148438 136.52789062 -13.19921875 135.76953125 C-30.59623603 119.16780618 -54.91369085 109.92919868 -78.5859375 107.859375 C-79.95335083 107.73151611 -79.95335083 107.73151611 -81.34838867 107.60107422 C-83.56511125 107.39466464 -85.78219774 107.19440119 -88 107 C-88.04663086 98.35843419 -88.08202374 89.71692221 -88.10362434 81.07526112 C-88.11399891 77.0612775 -88.12804032 73.04738085 -88.15087891 69.03344727 C-88.17283575 65.14954986 -88.184616 61.26573537 -88.18975449 57.38178062 C-88.19340974 55.910445 -88.20054552 54.43911318 -88.21146011 52.96781349 C-88.35223816 33.1781718 -85.72273214 20.96562422 -72.37890625 6.20703125 C-71 5 -71 5 -69 5 C-69 4.34 -69 3.68 -69 3 C-47.13622735 -10.61634362 -23.03067051 -12.64428969 0 0 Z " fill="#017EC3" transform="translate(390,91)"/>
<path d="M0 0 C0.33 0 0.66 0 1 0 C1.14695312 0.969375 1.29390625 1.93875 1.4453125 2.9375 C6.00223683 30.95323073 20.33347721 56.81355141 43.1875 74.0625 C60.82313397 86.40990342 79.98061936 94.16869414 101.49609375 96.11328125 C102.41418823 96.20049438 103.33228271 96.28770752 104.27819824 96.37756348 C106.51840548 96.58970155 108.75894207 96.79708192 111 97 C111.09332669 105.62425351 111.16407863 114.24829052 111.20724869 122.87292671 C111.22798461 126.87917238 111.25604034 130.88506863 111.30175781 134.89111328 C111.34572281 138.76855703 111.36924184 142.64566806 111.37950897 146.52334213 C111.38681076 147.99110007 111.40106468 149.45884307 111.42292023 150.92645645 C111.66505805 167.88498531 107.81331801 182.93023537 96.125 195.6875 C82.53866482 208.6427759 66.58508706 211.64440842 48.40625 211.3125 C33.76321146 210.7040635 22.18112046 204.04466073 12.19140625 193.5703125 C4.09070117 184.06895075 -0.12961728 171.48365901 -0.12025452 159.09672546 C-0.12110894 158.41458365 -0.12196337 157.73244183 -0.12284368 157.02962905 C-0.12448667 154.75108965 -0.1189965 152.47262438 -0.11352539 150.1940918 C-0.11324324 148.55790712 -0.1134018 146.92172232 -0.1139679 145.28553772 C-0.11425477 140.8479477 -0.10837569 136.41038471 -0.10139394 131.97280097 C-0.09514222 127.33366009 -0.09455516 122.69451859 -0.09336853 118.05537415 C-0.09026059 109.27237479 -0.08205441 100.48938789 -0.07201904 91.70639402 C-0.06084126 81.70647003 -0.05534325 71.70654544 -0.05032361 61.70661676 C-0.03987137 41.13773756 -0.02228229 20.56886956 0 0 Z " fill="#007EC3" transform="translate(92,212)"/>
<path d="M0 0 C1.14726562 0.01353516 2.29453125 0.02707031 3.4765625 0.04101562 C6.27654958 0.07601546 9.07551217 0.12511141 11.875 0.1875 C11.87554477 0.92041952 11.87608953 1.65333904 11.87665081 2.40846825 C11.8916409 20.27083948 11.93417765 38.13295267 12.00709057 55.99518394 C12.04169226 64.6333738 12.06708975 73.27140487 12.07055664 81.90966797 C12.07360326 89.44186596 12.09418721 96.97378081 12.13552457 104.50586951 C12.15679327 108.49135676 12.16948701 112.47644212 12.16115379 116.46198654 C12.15357439 120.21984952 12.16959196 123.97690082 12.20306015 127.73461533 C12.21512599 129.75800287 12.2027551 131.78149091 12.18943787 133.80487061 C12.30188821 142.81845442 13.95353205 149.69643335 19.97265625 156.58984375 C20.62105469 157.09644531 21.26945312 157.60304687 21.9375 158.125 C22.58847656 158.64964844 23.23945313 159.17429688 23.91015625 159.71484375 C24.55855469 160.20082031 25.20695312 160.68679687 25.875 161.1875 C26.61621094 161.74566406 27.35742188 162.30382812 28.12109375 162.87890625 C28.69988281 163.31074219 29.27867187 163.74257812 29.875 164.1875 C-5.31257533 162.98244605 -38.73236723 144.64711716 -62.68261719 119.55566406 C-73.42594059 108.03198655 -81.37819162 95.19508704 -88.25 81.0625 C-88.64082764 80.26884033 -89.03165527 79.47518066 -89.43432617 78.6574707 C-91.73251443 73.75428579 -93.40586985 69.75207643 -91.47265625 64.37207031 C-90.580282 62.32431702 -89.59797293 60.35414444 -88.5625 58.375 C-88.19970947 57.66794922 -87.83691895 56.96089844 -87.46313477 56.23242188 C-84.5609103 50.7178789 -81.2488511 45.86939517 -77.125 41.1875 C-76.31289062 40.21490234 -76.31289062 40.21490234 -75.484375 39.22265625 C-61.52365366 22.75030981 -44.00304685 9.4913978 -23.125 3.1875 C-22.46450653 2.94566986 -21.80401306 2.70383972 -21.12350464 2.4546814 C-14.0028827 0.00896636 -7.47757243 -0.16954961 0 0 Z " fill="#02B7EB" transform="translate(191.125,32.8125)"/>
<path d="M0 0 C33.83338516 0.6681638 65.18688713 18.03735545 89 41 C89.77859375 41.71542969 90.5571875 42.43085938 91.359375 43.16796875 C104.85224359 55.91920804 115.92398769 73.47049545 122 91 C121.75996637 96.79007953 120.4012716 101.11909422 117.5625 106.1875 C117.20760498 106.83187012 116.85270996 107.47624023 116.48706055 108.14013672 C101.94486567 133.78653625 78.11160526 152.33085227 50 161 C49.11828125 161.28617188 48.2365625 161.57234375 47.328125 161.8671875 C40.91510292 163.72731821 34.72683297 164.29624149 28.09375 164.58203125 C26.77842285 164.64469177 26.77842285 164.64469177 25.43652344 164.70861816 C23.29122116 164.81018391 21.14563431 164.90570839 19 165 C18.99853344 164.27830974 18.99706688 163.55661947 18.99555588 162.81305981 C18.95843389 145.21739454 18.89934798 127.62193862 18.81609726 110.02643108 C18.77636154 101.51721079 18.74394137 93.00808224 18.72900391 84.4987793 C18.71595894 77.07829845 18.68892211 69.65801994 18.64538693 62.23765308 C18.62283572 58.31199312 18.60708548 54.38658214 18.60811615 50.46085167 C18.60886655 46.75806719 18.59076546 43.05583174 18.55883217 39.35318947 C18.54638767 37.36220737 18.55336752 35.37113276 18.56114197 33.38012695 C18.45885717 24.48490356 17.21156389 15.97998518 11.8125 8.625 C8.23250018 5.28366683 4.37271034 3.15301206 0 1 C0 0.67 0 0.34 0 0 Z " fill="#00B6EA" transform="translate(283,310)"/>
<path d="M0 0 C0.33 0 0.66 0 1 0 C0.99943446 1.08115271 0.99943446 1.08115271 0.9988575 2.18414688 C0.99172454 19.76350615 1.01778078 37.34250702 1.0802784 54.92175674 C1.10971136 63.4231632 1.12812096 71.92432079 1.12011719 80.42578125 C1.11316539 87.84010035 1.12736813 95.25403388 1.16643608 102.66825843 C1.18637738 106.59016893 1.19608997 110.51147495 1.18042374 114.43341827 C1.16597739 118.13394485 1.18006757 121.83332301 1.21495247 125.53370285 C1.22657358 127.52093626 1.20892161 129.5082754 1.1900177 131.49545288 C1.30806256 140.07708939 2.98721886 146.90745169 8 154 C9.65280981 155.35047225 11.31694972 156.68740817 13 158 C13 158.66 13 159.32 13 160 C13.72595871 160.14333771 14.45191742 160.28667542 15.19987488 160.43435669 C16.91250545 160.7803191 18.6222907 161.14132932 20.3261261 161.52828979 C28.59304962 163.27125292 36.76482599 163.2562582 45.16796875 163.1953125 C46.69924228 163.19157351 48.23051824 163.18873073 49.76179504 163.18673706 C53.75496244 163.17917026 57.74797993 163.15958321 61.74108887 163.1373291 C65.83062717 163.11671918 69.92019015 163.10770325 74.00976562 163.09765625 C82.00657854 163.07632936 90.00327052 163.04227954 98 163 C97.99777939 162.17172195 97.99555878 161.34344391 97.99327087 160.49006653 C97.97321862 152.67735313 97.95800068 144.8646484 97.94818783 137.05191517 C97.94297333 133.03549411 97.93590172 129.01909435 97.92456055 125.00268555 C97.91368072 121.12531513 97.90771236 117.24796518 97.90512276 113.37058067 C97.90327769 111.89264288 97.89967476 110.41470618 97.89426994 108.93677711 C97.88699188 106.86383281 97.88601191 104.79097264 97.88647461 102.71801758 C97.884254 101.53887283 97.88203339 100.35972809 97.87974548 99.14485168 C97.98836526 96.30426739 98.34602724 93.7598529 99 91 C99.33 91 99.66 91 100 91 C99.67 115.42 99.34 139.84 99 165 C103.29 165 107.58 165 112 165 C136.17735125 167.74797412 158.34982451 178.47435093 176 195 C176.80695313 195.72703125 177.61390625 196.4540625 178.4453125 197.203125 C195.79931496 213.52919003 209.34970784 239.527009 210.11328125 263.56640625 C210.12346864 266.71430886 210.09004196 269.85353388 210 273 C209.67 273 209.34 273 209 273 C208.76216797 271.72769531 208.76216797 271.72769531 208.51953125 270.4296875 C202.65687121 240.95443536 187.63558606 214.76395372 162.6015625 197.640625 C159.12833993 195.32449938 155.58654291 193.13559473 152 191 C151.06929688 190.443125 150.13859375 189.88625 149.1796875 189.3125 C142.94734917 185.90335766 136.47558028 183.74470282 129.6875 181.75 C128.85855225 181.50354736 128.02960449 181.25709473 127.17553711 181.00317383 C113.25374586 177.13013391 99.40812467 176.71561244 85.06134987 176.72560501 C81.94187189 176.72658695 78.82272315 176.71343375 75.70329285 176.69662476 C66.84478253 176.6508567 57.98631043 176.62578419 49.12768555 176.61914062 C43.67667484 176.61407138 38.22601323 176.58955766 32.77512169 176.55381393 C30.72347821 176.54414653 28.67178593 176.54161083 26.62012672 176.54698563 C-6.11794867 176.62873952 -37.52057551 167.141036 -63 146 C-63.55494141 145.55430664 -64.10988281 145.10861328 -64.68164062 144.64941406 C-84.73906841 128.53934114 -100.34253576 107.42847374 -104.4140625 81.34765625 C-104.48367187 80.59355469 -104.55328125 79.83945313 -104.625 79.0625 C-104.69976562 78.29035156 -104.77453125 77.51820312 -104.8515625 76.72265625 C-104.90054688 76.15417969 -104.94953125 75.58570312 -105 75 C-110.45140579 89.86747035 -110.29313542 104.38868252 -110.2746582 120.02929688 C-110.27901022 122.46476904 -110.284195 124.90023984 -110.29014587 127.33570862 C-110.30210939 133.241673 -110.30469399 139.14759516 -110.30234561 145.05356705 C-110.30055616 149.85724461 -110.30232546 154.66090843 -110.30657005 159.46458435 C-110.30746284 160.49354594 -110.30746284 160.49354594 -110.30837366 161.54329464 C-110.30958551 162.93722046 -110.31079964 164.33114627 -110.31201603 165.72507209 C-110.32286855 178.76899742 -110.32073962 191.81289685 -110.31463119 204.85682362 C-110.30946094 216.7690281 -110.32072439 228.68115083 -110.33972941 240.59333915 C-110.35913621 252.85215924 -110.36735903 265.11094071 -110.36360615 277.36977625 C-110.36169882 284.24129079 -110.36413612 291.11273573 -110.37832069 297.98423767 C-110.3915249 304.44562186 -110.38893605 310.90688352 -110.37590981 317.36826897 C-110.37354903 319.73369846 -110.37626075 322.09913953 -110.38453293 324.46455574 C-110.44852791 344.1923983 -109.26540151 359.65676668 -95.28125 374.7734375 C-91.25210016 378.70599813 -87.22315119 381.6038745 -82.1875 384.125 C-81.21167969 384.62257813 -80.23585937 385.12015625 -79.23046875 385.6328125 C-66.01541285 391.22564148 -47.30624814 391.34540815 -34 386 C-20.06793162 379.97893803 -10.51307603 371.08374716 -4.73446655 356.98397827 C-1.17156664 347.35969248 -0.53155205 338.21798612 -0.48828125 328.05078125 C-0.47139836 326.54191157 -0.45324339 325.03305564 -0.43388367 323.5242157 C-0.38676857 319.59034527 -0.35671216 315.65653062 -0.33044434 311.72247314 C-0.30044235 307.69312529 -0.25398056 303.663969 -0.20898438 299.63476562 C-0.12339039 291.75660542 -0.05585225 283.87842699 0 276 C11.25867245 275.90658901 22.51725004 275.83587904 33.77623367 275.79275131 C39.00639965 275.77203366 44.23629709 275.74401188 49.46630859 275.69824219 C54.53031739 275.65421158 59.59407083 275.63074459 64.65825653 275.62049103 C66.57319906 275.61320078 68.48813046 275.59897127 70.40296173 275.57707977 C107.28537874 275.17287355 141.78972084 288.00460168 168.62597656 313.53466797 C179.67945046 324.40910259 187.92296999 336.30154488 195.00439453 350.07080078 C195.91908186 351.84320373 196.87747628 353.59287095 197.83984375 355.33984375 C199 358 199 358 198 361 C197.74420166 360.48727539 197.48840332 359.97455078 197.22485352 359.44628906 C189.75316716 344.57948075 181.47024509 332.15443515 170 320 C169.32710938 319.26265625 168.65421875 318.5253125 167.9609375 317.765625 C145.894988 294.46001541 113.60625959 280.8500934 82 278 C82.58007812 278.32871094 83.16015625 278.65742188 83.7578125 278.99609375 C91.25238444 283.55962023 96.21113472 289.0793248 98.58137131 297.67883492 C99.539732 302.992645 99.25675051 308.44944101 99.22705078 313.82983398 C99.226486 315.2298634 99.22680453 316.62989341 99.22793579 318.02992249 C99.22850771 321.81456366 99.21677954 325.5990771 99.20278788 329.38368869 C99.19025364 333.34482084 99.1891079 337.30595618 99.18673706 341.2671051 C99.18053019 348.76091879 99.16413014 356.25467386 99.14403808 363.74846178 C99.12165436 372.28291539 99.11067944 380.81737186 99.10064721 389.35184753 C99.07976319 406.90126554 99.04460268 424.45062657 99 442 C102.82407448 441.55499965 106.64648305 441.09696623 110.46875 440.63671875 C111.5422168 440.51196167 112.61568359 440.38720459 113.72167969 440.25866699 C138.44613845 437.25304099 160.41221647 425.43213943 178 408 C178.87914062 407.13375 179.75828125 406.2675 180.6640625 405.375 C197.49795676 387.86358058 206.24650884 364.83943666 209 341 C209.33 341 209.66 341 210 341 C211.48228614 367.72232506 198.46339605 390.71925637 181.10546875 410.1171875 C165.45495496 426.52551564 140.72679089 442.0905013 117.4128418 443.11352539 C116.51734619 443.10828857 115.62185059 443.10305176 114.69921875 443.09765625 C113.72275391 443.09443359 112.74628906 443.09121094 111.74023438 443.08789062 C110.22913086 443.07532227 110.22913086 443.07532227 108.6875 443.0625 C107.66076172 443.05798828 106.63402344 443.05347656 105.57617188 443.04882812 C103.05072118 443.03708184 100.52539095 443.02065565 98 443 C97.8249075 432.68762891 97.6594782 422.37512327 97.5 412.0625 C97.48797546 411.28896431 97.47595093 410.51542862 97.46356201 409.71845245 C97.08046475 384.95676771 96.90092243 360.20667091 97.03710938 335.44165039 C97.08159252 325.75771471 97.07612633 316.0894532 96.625 306.4140625 C96.5787146 305.30096207 96.5787146 305.30096207 96.53149414 304.16537476 C96.25814074 299.23059285 95.31788179 294.76459802 94 290 C93.34 290 92.68 290 92 290 C91.4121875 288.88625 91.4121875 288.88625 90.8125 287.75 C88.35273184 284.01793796 85.97970737 283.0247634 82 281 C81.13251129 280.45879013 81.13251129 280.45879013 80.24749756 279.90664673 C77.03120871 278.60918692 73.89400969 278.69161145 70.47753906 278.68115234 C69.72593002 278.67110672 68.97432098 278.6610611 68.19993591 278.65071106 C65.72183987 278.61988241 63.24385186 278.60284496 60.765625 278.5859375 C59.04497346 278.56722558 57.32433109 278.54765215 55.60369873 278.5272522 C51.07954313 278.47592747 46.55535778 278.43630358 42.03106689 278.39910889 C37.41256346 278.35907138 32.79418382 278.30797788 28.17578125 278.2578125 C19.11727446 278.16104918 10.05869778 278.07664567 1 278 C1.00444122 278.85920044 1.00888245 279.71840088 1.01345825 280.6036377 C1.05363171 288.72444497 1.08403345 296.84521857 1.10362434 304.9661026 C1.11403499 309.14053101 1.12814419 313.31487689 1.15087891 317.48925781 C1.1727047 321.52226059 1.18458906 325.55518427 1.18975449 329.58824158 C1.19343283 331.12232202 1.20061551 332.65639843 1.21146011 334.19044495 C1.31160536 348.95175767 1.31160536 348.95175767 -1 356 C-1.24878906 356.85207031 -1.49757813 357.70414062 -1.75390625 358.58203125 C-6.60176255 371.95462036 -17.0285544 381.49619092 -29.54272461 387.59106445 C-43.37786247 394.00459626 -59.46942205 395.39891934 -74.19921875 391.0390625 C-90.75405208 384.89738096 -100.92436398 375.80402633 -108.41796875 360.01171875 C-114.64562998 344.83600999 -113.14688755 327.55873445 -113.12939453 311.42919922 C-113.13075269 309.30492625 -113.13253494 307.18065352 -113.13470459 305.05638123 C-113.13923129 299.33082159 -113.13750865 293.60528014 -113.1343255 287.87972021 C-113.13177516 281.8535797 -113.13414703 275.82744063 -113.13571167 269.80130005 C-113.13752644 259.67905399 -113.13514614 249.55681525 -113.13037109 239.43457031 C-113.12493866 227.78536067 -113.12668653 216.13616855 -113.1321975 204.48695934 C-113.13675899 194.43711762 -113.13736414 184.38728113 -113.13475883 174.3374387 C-113.13321154 168.35659761 -113.13295912 162.37576471 -113.13629532 156.39492416 C-113.1392181 150.76247159 -113.13711879 145.13004123 -113.13140106 139.49759102 C-113.13009642 137.4491956 -113.13042762 135.40079826 -113.13266373 133.35240364 C-113.14297193 122.93613813 -113.02409088 112.53560528 -112.60910034 102.1267395 C-112.57769616 101.23362214 -112.54629198 100.34050478 -112.51393616 99.42032325 C-112.03061545 88.7469004 -109.02583718 78.8633011 -105 69 C-103.26268283 71.60597576 -102.02922847 73.99134452 -100.75 76.83203125 C-95.43670272 88.42947461 -90.03873593 99.07651056 -82 109 C-81.56719727 109.5480127 -81.13439453 110.09602539 -80.68847656 110.66064453 C-58.58707677 138.54973741 -26.77429881 157.04740824 8.37890625 162.703125 C10.94514333 162.99378673 13.41990738 163.05598754 16 163 C15.154375 162.505 14.30875 162.01 13.4375 161.5 C7.21138034 157.32466383 1.98418084 151.31512951 0 144 C-0.42983669 139.33120025 -0.37975964 134.67042179 -0.34057617 129.98657227 C-0.33972903 128.56683877 -0.34020674 127.14710395 -0.34190369 125.72737122 C-0.34276168 121.88894887 -0.32516795 118.05080984 -0.30418181 114.21245313 C-0.28538215 110.19527464 -0.28366199 106.1780891 -0.28010559 102.16087341 C-0.27079476 94.56077756 -0.24619408 86.96081172 -0.21605712 79.36077303 C-0.18248309 70.70541285 -0.16601956 62.05004635 -0.15097082 53.39463723 C-0.11964362 35.59635121 -0.06690192 17.79818607 0 0 Z " fill="#01DAF5" transform="translate(203,33)"/>
<path d="M0 0 C1.06966012 3.21615928 0.93622227 4.87523526 -0.3125 8 C-5.03121519 21.28059042 -4.29107295 35.13452853 -4.2746582 49.02929688 C-4.27901022 51.46476904 -4.284195 53.90023984 -4.29014587 56.33570862 C-4.30210939 62.241673 -4.30469399 68.14759516 -4.30234561 74.05356705 C-4.30055616 78.85724461 -4.30232546 83.66090843 -4.30657005 88.46458435 C-4.30746284 89.49354594 -4.30746284 89.49354594 -4.30837366 90.54329464 C-4.30958551 91.93722046 -4.31079964 93.33114627 -4.31201603 94.72507209 C-4.32286855 107.76899742 -4.32073962 120.81289685 -4.31463119 133.85682362 C-4.30946094 145.7690281 -4.32072439 157.68115083 -4.33972941 169.59333915 C-4.35913621 181.85215924 -4.36735903 194.11094071 -4.36360615 206.36977625 C-4.36169882 213.24129079 -4.36413612 220.11273573 -4.37832069 226.98423767 C-4.3915249 233.44562186 -4.38893605 239.90688352 -4.37590981 246.36826897 C-4.37354903 248.73369846 -4.37626075 251.09913953 -4.38453293 253.46455574 C-4.44852791 273.1923983 -3.26540151 288.65676668 10.71875 303.7734375 C14.74789984 307.70599813 18.77684881 310.6038745 23.8125 313.125 C24.78832031 313.62257813 25.76414063 314.12015625 26.76953125 314.6328125 C39.98458715 320.22564148 58.69375186 320.34540815 72 315 C85.93206838 308.97893803 95.48692397 300.08374716 101.26553345 285.98397827 C104.82843336 276.35969248 105.46844795 267.21798612 105.51171875 257.05078125 C105.52860164 255.54191157 105.54675661 254.03305564 105.56611633 252.5242157 C105.61323143 248.59034527 105.64328784 244.65653062 105.66955566 240.72247314 C105.69955765 236.69312529 105.74601944 232.663969 105.79101562 228.63476562 C105.87660961 220.75660542 105.94414775 212.87842699 106 205 C117.25867245 204.90658901 128.51725004 204.83587904 139.77623367 204.79275131 C145.00639965 204.77203366 150.23629709 204.74401188 155.46630859 204.69824219 C160.53031739 204.65421158 165.59407083 204.63074459 170.65825653 204.62049103 C172.57319906 204.61320078 174.48813046 204.59897127 176.40296173 204.57707977 C213.28537874 204.17287355 247.78972084 217.00460168 274.62597656 242.53466797 C285.67945046 253.40910259 293.92296999 265.30154488 301.00439453 279.07080078 C301.91908186 280.84320373 302.87747628 282.59287095 303.83984375 284.33984375 C305 287 305 287 304 290 C303.74420166 289.48727539 303.48840332 288.97455078 303.22485352 288.44628906 C295.75316716 273.57948075 287.47024509 261.15443515 276 249 C275.32710938 248.26265625 274.65421875 247.5253125 273.9609375 246.765625 C251.894988 223.46001541 219.60625959 209.8500934 188 207 C188.87011719 207.49306641 188.87011719 207.49306641 189.7578125 207.99609375 C197.25238444 212.55962023 202.21113472 218.0793248 204.58137131 226.67883492 C205.539732 231.992645 205.25675051 237.44944101 205.22705078 242.82983398 C205.226486 244.2298634 205.22680453 245.62989341 205.22793579 247.02992249 C205.22850771 250.81456366 205.21677954 254.5990771 205.20278788 258.38368869 C205.19025364 262.34482084 205.1891079 266.30595618 205.18673706 270.2671051 C205.18053019 277.76091879 205.16413014 285.25467386 205.14403808 292.74846178 C205.12165436 301.28291539 205.11067944 309.81737186 205.10064721 318.35184753 C205.07976319 335.90126554 205.04460268 353.45062657 205 371 C208.82407448 370.55499965 212.64648305 370.09696623 216.46875 369.63671875 C217.5422168 369.51196167 218.61568359 369.38720459 219.72167969 369.25866699 C244.44613845 366.25304099 266.41221647 354.43213943 284 337 C284.87914062 336.13375 285.75828125 335.2675 286.6640625 334.375 C303.49795676 316.86358058 312.24650884 293.83943666 315 270 C315.33 270 315.66 270 316 270 C317.48228614 296.72232506 304.46339605 319.71925637 287.10546875 339.1171875 C271.45495496 355.52551564 246.72679089 371.0905013 223.4128418 372.11352539 C222.51734619 372.10828857 221.62185059 372.10305176 220.69921875 372.09765625 C219.72275391 372.09443359 218.74628906 372.09121094 217.74023438 372.08789062 C216.22913086 372.07532227 216.22913086 372.07532227 214.6875 372.0625 C213.66076172 372.05798828 212.63402344 372.05347656 211.57617188 372.04882812 C209.05072118 372.03708184 206.52539095 372.02065565 204 372 C203.8249075 361.68762891 203.6594782 351.37512327 203.5 341.0625 C203.48797546 340.28896431 203.47595093 339.51542862 203.46356201 338.71845245 C203.08046475 313.95676771 202.90092243 289.20667091 203.03710938 264.44165039 C203.08159252 254.75771471 203.07612633 245.0894532 202.625 235.4140625 C202.59414307 234.67199554 202.56328613 233.92992859 202.53149414 233.16537476 C202.25814074 228.23059285 201.31788179 223.76459802 200 219 C199.34 219 198.68 219 198 219 C197.4121875 217.88625 197.4121875 217.88625 196.8125 216.75 C194.35273184 213.01793796 191.97970737 212.0247634 188 210 C187.13251129 209.45879013 187.13251129 209.45879013 186.24749756 208.90664673 C183.03120871 207.60918692 179.89400969 207.69161145 176.47753906 207.68115234 C175.72593002 207.67110672 174.97432098 207.6610611 174.19993591 207.65071106 C171.72183987 207.61988241 169.24385186 207.60284496 166.765625 207.5859375 C165.04497346 207.56722558 163.32433109 207.54765215 161.60369873 207.5272522 C157.07954313 207.47592747 152.55535778 207.43630358 148.03106689 207.39910889 C143.41256346 207.35907138 138.79418382 207.30797788 134.17578125 207.2578125 C125.11727446 207.16104918 116.05869778 207.07664567 107 207 C107.00444122 207.85920044 107.00888245 208.71840088 107.01345825 209.6036377 C107.05363171 217.72444497 107.08403345 225.84521857 107.10362434 233.9661026 C107.11403499 238.14053101 107.12814419 242.31487689 107.15087891 246.48925781 C107.1727047 250.52226059 107.18458906 254.55518427 107.18975449 258.58824158 C107.19343283 260.12232202 107.20061551 261.65639843 107.21146011 263.19044495 C107.31160536 277.95175767 107.31160536 277.95175767 105 285 C104.75121094 285.85207031 104.50242187 286.70414062 104.24609375 287.58203125 C99.39823745 300.95462036 88.9714456 310.49619092 76.45727539 316.59106445 C62.62213753 323.00459626 46.53057795 324.39891934 31.80078125 320.0390625 C15.24594792 313.89738096 5.07563602 304.80402633 -2.41796875 289.01171875 C-8.64562998 273.83600999 -7.14688755 256.55873445 -7.12939453 240.42919922 C-7.13075269 238.30492625 -7.13253494 236.18065352 -7.13470459 234.05638123 C-7.13923129 228.33082159 -7.13750865 222.60528014 -7.1343255 216.87972021 C-7.13177516 210.8535797 -7.13414703 204.82744063 -7.13571167 198.80130005 C-7.13752644 188.67905399 -7.13514614 178.55681525 -7.13037109 168.43457031 C-7.12493866 156.78536067 -7.12668653 145.13616855 -7.1321975 133.48695934 C-7.13675899 123.43711762 -7.13736414 113.38728113 -7.13475883 103.3374387 C-7.13321154 97.35659761 -7.13295912 91.37576471 -7.13629532 85.39492416 C-7.1392181 79.76247159 -7.13711879 74.13004123 -7.13140106 68.49759102 C-7.13009642 66.4491956 -7.13042762 64.40079826 -7.13266373 62.35240364 C-7.14296914 51.93896389 -7.02506694 41.540692 -6.61300659 31.134552 C-6.58212609 30.242482 -6.5512456 29.350412 -6.51942933 28.43130958 C-6.16533339 20.57421282 -4.49928556 13.46956289 -2 6 C-1.62746094 4.8759375 -1.25492187 3.751875 -0.87109375 2.59375 C-0.58363281 1.7378125 -0.29617187 0.881875 0 0 Z " fill="#D3EEF4" transform="translate(97,104)"/>
<path d="M0 0 C0.33 0 0.66 0 1 0 C1.14695312 0.969375 1.29390625 1.93875 1.4453125 2.9375 C6.00223683 30.95323073 20.33347721 56.81355141 43.1875 74.0625 C64.03129948 88.65606672 85.85290611 95.05971661 111 97 C111 101.62 111 106.24 111 111 C82.26063584 112.23168704 52.2162022 100.64398448 30.80664062 81.55053711 C28.14260436 79.09419357 25.55488796 76.56929691 23 74 C22.26136719 73.26136719 21.52273437 72.52273438 20.76171875 71.76171875 C16.62672935 67.36155969 13.18637788 62.5537941 9.8125 57.5625 C9.20595581 56.66760864 9.20595581 56.66760864 8.5871582 55.75463867 C7.77503335 54.51990965 6.98667061 53.26929667 6.2199707 52.00585938 C5.39439821 50.64846422 4.51798687 49.32093325 3.59838867 48.02539062 C-1.83434551 39.32686313 -0.54189796 29.23478381 -0.3125 19.375 C-0.28738118 17.49351928 -0.26457435 15.61200619 -0.24414062 13.73046875 C-0.18943969 9.15283737 -0.10336718 4.5767805 0 0 Z " fill="#006ABA" transform="translate(92,212)"/>
<path d="M0 0 C29.75993458 1.05635019 56.11074206 9.69026733 79 29 C80.11568359 29.88945312 80.11568359 29.88945312 81.25390625 30.796875 C90.02449917 38.00558151 96.8618308 47.52268597 103 57 C104.02371704 58.53974487 104.02371704 58.53974487 105.06811523 60.1105957 C111.548479 70.52874824 111.99868387 79.40439931 111.5 91.4375 C111.45974825 93.15160783 111.42326843 94.86580853 111.390625 96.58007812 C111.30371353 100.7224066 111.16640103 104.86013439 111 109 C110.67 109 110.34 109 110 109 C109.79246094 107.89785156 109.58492188 106.79570312 109.37109375 105.66015625 C104.62819816 81.77572013 94.36622717 62.11910903 77 45 C76.27425781 44.26394531 75.54851562 43.52789062 74.80078125 42.76953125 C54.52761559 23.42313888 27.20316192 15.90251759 0 14 C0 9.38 0 4.76 0 0 Z " fill="#006ABA" transform="translate(302,184)"/>
<path d="M0 0 C2.16063854 3.2409578 3.33345288 6.49029203 4.625 10.125 C19.23685834 49.77737778 44.09172456 79.81544543 82.4375 98.1875 C92.89894853 102.86393314 103.61786449 106.41454661 115 108 C115 108.33 115 108.66 115 109 C79.81242467 107.79494605 46.39263277 89.45961716 22.44238281 64.36816406 C11.69905941 52.84448655 3.74680838 40.00758704 -3.125 25.875 C-3.51582764 25.08134033 -3.90665527 24.28768066 -4.30932617 23.4699707 C-6.32097762 19.17811211 -7.67980016 15.83337913 -7 11 C-5.9765625 8.26171875 -5.9765625 8.26171875 -4.625 5.6875 C-4.18414062 4.82511719 -3.74328125 3.96273437 -3.2890625 3.07421875 C-2 1 -2 1 0 0 Z " fill="#0592E0" transform="translate(106,88)"/>
<path d="M0 0 C5.67578883 -0.25627732 10.47470694 0.6259262 15.9375 2.125 C17.18321777 2.46277466 17.18321777 2.46277466 18.45410156 2.80737305 C43.59086841 9.80660452 64.24936548 21.919031 83 40 C83.77859375 40.71542969 84.5571875 41.43085938 85.359375 42.16796875 C98.87829877 54.94383111 109.85984823 72.46220243 116 90 C115.88689441 96.78633552 113.56895743 101.31073944 110 107 C109.34 107 108.68 107 108 107 C107.6596875 105.97003906 107.319375 104.94007813 106.96875 103.87890625 C99.2714156 81.05223502 88.53712035 59.72325477 72 42 C71.52981445 41.48743652 71.05962891 40.97487305 70.57519531 40.44677734 C52.03723991 20.39641596 26.72958479 6.50314981 0 1 C0 0.67 0 0.34 0 0 Z " fill="#0190DF" transform="translate(289,311)"/>
<path d="M0 0 C32.54058715 -1.93950519 65.82177669 12.68218828 89.84667969 34.00048828 C102.60117459 45.72428387 112.09308799 58.68790662 120.00439453 74.07080078 C120.91908186 75.84320373 121.87747628 77.59287095 122.83984375 79.33984375 C124 82 124 82 123 85 C122.74420166 84.48727539 122.48840332 83.97455078 122.22485352 83.44628906 C114.75316716 68.57948075 106.47024509 56.15443515 95 44 C94.32710938 43.26265625 93.65421875 42.5253125 92.9609375 41.765625 C70.894988 18.46001541 38.60625959 4.8500934 7 2 C7.58007812 2.32871094 8.16015625 2.65742188 8.7578125 2.99609375 C16.25238444 7.55962023 21.21113472 13.0793248 23.58137131 21.67883492 C24.539732 26.992645 24.25675051 32.44944101 24.22705078 37.82983398 C24.226486 39.2298634 24.22680453 40.62989341 24.22793579 42.02992249 C24.22850771 45.81456366 24.21677954 49.5990771 24.20278788 53.38368869 C24.19025364 57.34482084 24.1891079 61.30595618 24.18673706 65.2671051 C24.18053019 72.76091879 24.16413014 80.25467386 24.14403808 87.74846178 C24.12165436 96.28291539 24.11067944 104.81737186 24.10064721 113.35184753 C24.07976319 130.90126554 24.04460268 148.45062657 24 166 C27.82407448 165.55499965 31.64648305 165.09696623 35.46875 164.63671875 C36.5422168 164.51196167 37.61568359 164.38720459 38.72167969 164.25866699 C63.44613845 161.25304099 85.41221647 149.43213943 103 132 C103.87914062 131.13375 104.75828125 130.2675 105.6640625 129.375 C122.49795676 111.86358058 131.24650884 88.83943666 134 65 C134.33 65 134.66 65 135 65 C136.48228614 91.72232506 123.46339605 114.71925637 106.10546875 134.1171875 C90.45495496 150.52551564 65.72679089 166.0905013 42.4128418 167.11352539 C41.51734619 167.10828857 40.62185059 167.10305176 39.69921875 167.09765625 C38.72275391 167.09443359 37.74628906 167.09121094 36.74023438 167.08789062 C35.73283203 167.07951172 34.72542969 167.07113281 33.6875 167.0625 C32.66076172 167.05798828 31.63402344 167.05347656 30.57617188 167.04882812 C28.05072118 167.03708184 25.52539095 167.02065565 23 167 C22.8249075 156.68762891 22.6594782 146.37512327 22.5 136.0625 C22.48797546 135.28896431 22.47595093 134.51542862 22.46356201 133.71845245 C22.08046475 108.95676771 21.90092243 84.20667091 22.03710938 59.44165039 C22.08159252 49.75771471 22.07612633 40.0894532 21.625 30.4140625 C21.59414307 29.67199554 21.56328613 28.92992859 21.53149414 28.16537476 C21.25814074 23.23059285 20.31788179 18.76459802 19 14 C18.34 14 17.68 14 17 14 C16.608125 13.2575 16.21625 12.515 15.8125 11.75 C13.35273184 8.01793796 10.97970737 7.0247634 7 5 C6.195625 4.5875 5.39125 4.175 4.5625 3.75 C4.046875 3.5025 3.53125 3.255 3 3 C3 2.34 3 1.68 3 1 C2.01 0.67 1.02 0.34 0 0 Z " fill="#D9F0F6" transform="translate(278,309)"/>
<path d="M0 0 C0.33 0 0.66 0 1 0 C2.48228614 26.72232506 -10.53660395 49.71925637 -27.89453125 69.1171875 C-43.54504504 85.52551564 -68.27320911 101.0905013 -91.5871582 102.11352539 C-92.93040161 102.10567017 -92.93040161 102.10567017 -94.30078125 102.09765625 C-95.27724609 102.09443359 -96.25371094 102.09121094 -97.25976562 102.08789062 C-98.26716797 102.07951172 -99.27457031 102.07113281 -100.3125 102.0625 C-101.33923828 102.05798828 -102.36597656 102.05347656 -103.42382812 102.04882812 C-105.94927882 102.03708184 -108.47460905 102.02065565 -111 102 C-111 101.67 -111 101.34 -111 101 C-109.98969727 100.90295776 -109.98969727 100.90295776 -108.95898438 100.80395508 C-78.51574201 97.78193928 -53.09320966 88.89769453 -31 67 C-30.12085938 66.13375 -29.24171875 65.2675 -28.3359375 64.375 C-11.50204324 46.86358058 -2.75349116 23.83943666 0 0 Z " fill="#ECF5F7" transform="translate(412,374)"/>
<path d="M0 0 C0.33 0 0.66 0 1 0 C0.99962297 0.72076847 0.99924595 1.44153694 0.9988575 2.18414688 C0.99172454 19.76350615 1.01778078 37.34250702 1.0802784 54.92175674 C1.10971136 63.4231632 1.12812096 71.92432079 1.12011719 80.42578125 C1.11316539 87.84010035 1.12736813 95.25403388 1.16643608 102.66825843 C1.18637738 106.59016893 1.19608997 110.51147495 1.18042374 114.43341827 C1.16597739 118.13394485 1.18006757 121.83332301 1.21495247 125.53370285 C1.22657358 127.52093626 1.20892161 129.5082754 1.1900177 131.49545288 C1.30806256 140.07708939 2.98721886 146.90745169 8 154 C9.65280981 155.35047225 11.31694972 156.68740817 13 158 C13 158.66 13 159.32 13 160 C13.72595871 160.14333771 14.45191742 160.28667542 15.19987488 160.43435669 C16.91250545 160.7803191 18.6222907 161.14132932 20.3261261 161.52828979 C28.59304962 163.27125292 36.76482599 163.2562582 45.16796875 163.1953125 C46.69924228 163.19157351 48.23051824 163.18873073 49.76179504 163.18673706 C53.75496244 163.17917026 57.74797993 163.15958321 61.74108887 163.1373291 C65.83062717 163.11671918 69.92019015 163.10770325 74.00976562 163.09765625 C82.00657854 163.07632936 90.00327052 163.04227954 98 163 C97.99777939 162.17172195 97.99555878 161.34344391 97.99327087 160.49006653 C97.97321862 152.67735313 97.95800068 144.8646484 97.94818783 137.05191517 C97.94297333 133.03549411 97.93590172 129.01909435 97.92456055 125.00268555 C97.91368072 121.12531513 97.90771236 117.24796518 97.90512276 113.37058067 C97.90327769 111.89264288 97.89967476 110.41470618 97.89426994 108.93677711 C97.88699188 106.86383281 97.88601191 104.79097264 97.88647461 102.71801758 C97.884254 101.53887283 97.88203339 100.35972809 97.87974548 99.14485168 C97.98836526 96.30426739 98.34602724 93.7598529 99 91 C99.33 91 99.66 91 100 91 C99.67 115.42 99.34 139.84 99 165 C80.18451189 165.16043524 80.18451189 165.16043524 72.1171875 165.1953125 C66.6287474 165.21915363 61.14057615 165.24724992 55.65234375 165.30175781 C51.22379499 165.3454621 46.79553486 165.36918864 42.36678696 165.37950897 C40.68360735 165.38685649 39.00044217 165.40120378 37.31738663 165.42292023 C27.0260014 165.550337 18.12598546 165.32150334 9.4140625 159.17578125 C8.82367188 158.56089844 8.23328125 157.94601563 7.625 157.3125 C6.71621094 156.40951172 6.71621094 156.40951172 5.7890625 155.48828125 C-0.12768606 147.25909166 -0.56299906 139.71060247 -0.45410156 129.75952148 C-0.45297136 128.33949313 -0.45361032 126.91946243 -0.45587158 125.49943542 C-0.45701293 121.66930379 -0.43359859 117.83967961 -0.40557575 114.00966525 C-0.38046465 109.99784889 -0.37821248 105.98601918 -0.37347412 101.97413635 C-0.36107272 94.38822445 -0.32828985 86.80254485 -0.28807616 79.21673495 C-0.24326979 70.57585291 -0.22134919 61.93495942 -0.20129442 53.29399002 C-0.15955444 35.52919529 -0.08925798 17.76461636 0 0 Z " fill="#E6F1F5" transform="translate(203,33)"/>
<path d="M0 0 C2.53686395 3.16155718 4.34380861 6.4583242 6.1875 10.0625 C24.13800466 43.6775369 55.78966345 67.14681952 91.875 78.25 C100.44159405 80.57178717 109.22362294 81.76494481 118 83 C118 83.33 118 83.66 118 84 C111.314918 84.18964772 105.23733018 83.55804597 98.6875 82.25 C97.7603418 82.06663086 96.83318359 81.88326172 95.87792969 81.69433594 C62.76869995 74.93332685 31.71945428 54.33271404 12.85620117 26.20214844 C0 6.30168472 0 6.30168472 0 0 Z " fill="#E2F2F5" transform="translate(103,114)"/>
<path d="M0 0 C16.09111612 -0.56330823 28.6273303 0.10912252 43 8 C43 8.66 43 9.32 43 10 C43.53625 10.226875 44.0725 10.45375 44.625 10.6875 C55.05601283 16.45200709 60.72284824 27.62612125 64.32421875 38.65234375 C66.18699509 45.12360723 66.10711426 51.31130925 66 58 C65.67 58 65.34 58 65 58 C64.90203125 57.12859375 64.8040625 56.2571875 64.703125 55.359375 C63.12148323 42.76078022 60.16349336 28.16349336 50.8125 18.8125 C50.214375 18.214375 49.61625 17.61625 49 17 C49 16.34 49 15.68 49 15 C48.13568359 14.59394531 48.13568359 14.59394531 47.25390625 14.1796875 C44.98037607 12.9897289 43.01682437 11.62522282 40.9375 10.125 C33.58794641 5.14823275 24.89793527 2.06271675 16.015625 1.68359375 C15.08105469 1.64169922 14.14648438 1.59980469 13.18359375 1.55664062 C12.21550781 1.51732422 11.24742187 1.47800781 10.25 1.4375 C9.26644531 1.39431641 8.28289062 1.35113281 7.26953125 1.30664062 C4.84648725 1.20077948 2.4233446 1.09869829 0 1 C0 0.67 0 0.34 0 0 Z " fill="#E1F1F5" transform="translate(347,83)"/>
<path d="M0 0 C17.3159161 -1.03207447 33.73760549 3.45806667 50 9 C49.34 9.99 48.68 10.98 48 12 C47.45287354 11.80365967 46.90574707 11.60731934 46.34204102 11.4050293 C36.89734419 8.04904065 27.52547462 4.76909249 17.625 3.0625 C16.9554126 2.94672607 16.2858252 2.83095215 15.59594727 2.71166992 C12.4133067 2.21494793 9.43665866 2.00871146 6.2109375 2.05859375 C3 2 3 2 0 0 Z " fill="#CBEAF3" transform="translate(278,309)"/>
<path d="M0 0 C0.33 0 0.66 0 1 0 C1.08636719 0.92039062 1.17273438 1.84078125 1.26171875 2.7890625 C2.74868063 16.18536128 5.79746322 27.7493383 15 38 C15.98266035 39.18461059 16.96226256 40.371771 17.9375 41.5625 C18.9584375 42.7690625 18.9584375 42.7690625 20 44 C15.70271418 43.5225238 13.82541582 41.09993305 11 38 C9.52070076 35.78105114 8.16799539 33.63123779 6.875 31.3125 C6.52953125 30.69310547 6.1840625 30.07371094 5.828125 29.43554688 C0.40315775 19.44491063 -0.44041344 11.32025659 0 0 Z " fill="#E5F1F5" transform="translate(91,368)"/>
<path d="M0 0 C5.99025998 0.299513 9.78934839 2.96262623 14 7 C17.8540504 12.03114954 20.13655803 16.46792556 20.09765625 22.88671875 C20.09443359 23.82451172 20.09121094 24.76230469 20.08789062 25.72851562 C20.07951172 26.70498047 20.07113281 27.68144531 20.0625 28.6875 C20.05798828 29.67556641 20.05347656 30.66363281 20.04882812 31.68164062 C20.03704303 34.12115474 20.02059011 36.56054689 20 39 C19.67 39 19.34 39 19 39 C18.95101563 37.72125 18.90203125 36.4425 18.8515625 35.125 C18.77647009 33.41664778 18.70092513 31.70831541 18.625 30 C18.5940625 29.16082031 18.563125 28.32164062 18.53125 27.45703125 C18.27950298 22.04447022 17.48441108 17.21354136 16 12 C15.34 12 14.68 12 14 12 C13.608125 11.2575 13.21625 10.515 12.8125 9.75 C10.73776231 6.60212213 8.98106842 5.61433863 5.71875 3.9140625 C3.64334738 2.81032565 1.83291153 1.46632922 0 0 Z " fill="#F7FCFC" transform="translate(281,311)"/>
<path d="M0 0 C2.53686395 3.16155718 4.34380861 6.4583242 6.1875 10.0625 C9.12028055 15.59804545 12.40904929 20.58467267 16.203125 25.5625 C17.97276506 27.96305522 19.50732754 30.4200723 21 33 C19.30078125 32.91796875 19.30078125 32.91796875 17 32 C15.22019471 29.79685743 13.70138823 27.6875259 12.1875 25.3125 C11.7538916 24.64637695 11.3202832 23.98025391 10.87353516 23.29394531 C0 6.26716933 0 6.26716933 0 0 Z " fill="#D4EFF5" transform="translate(103,114)"/>
<path d="M0 0 C3.63855528 1.81927764 4.64138341 6.43586 6.26953125 10.01953125 C8.12862425 13.22153567 10.07730693 14.79185329 13 17 C13 17.66 13 18.32 13 19 C13.804375 19.12375 14.60875 19.2475 15.4375 19.375 C16.7059375 19.684375 16.7059375 19.684375 18 20 C18.33 20.66 18.66 21.32 19 22 C12.42229823 21.09784993 8.41001113 17.07912969 4.41015625 11.96875 C1.81411859 8.05588164 0.35789185 4.77189133 0 0 Z " fill="#E3F5F8" transform="translate(203,174)"/>
<path d="M0 0 C-5.01986699 3.01667085 -8.71323804 3.38714622 -14.375 3.1875 C-15.11105469 3.17396484 -15.84710938 3.16042969 -16.60546875 3.14648438 C-18.40396743 3.11144869 -20.20208422 3.05765288 -22 3 C-22.33 2.34 -22.66 1.68 -23 1 C-21.35451172 0.90912109 -21.35451172 0.90912109 -19.67578125 0.81640625 C-18.22134346 0.73195502 -16.76691695 0.64730934 -15.3125 0.5625 C-14.59126953 0.52318359 -13.87003906 0.48386719 -13.12695312 0.44335938 C-10.04249909 0.26026393 -7.13796586 0.02848688 -4.10546875 -0.59765625 C-2 -1 -2 -1 0 0 Z " fill="#BCE1ED" transform="translate(164,422)"/>
<path d="M0 0 C1.01320312 0.27714844 2.02640625 0.55429688 3.0703125 0.83984375 C4.42183394 1.20588081 5.77339876 1.57175772 7.125 1.9375 C8.12273437 2.21110352 8.12273437 2.21110352 9.140625 2.49023438 C13.07445227 3.55082506 16.96973565 4.40362132 21 5 C21 5.33 21 5.66 21 6 C13.1812896 5.53430878 5.63600985 4.77541538 -2 3 C-1.34 2.67 -0.68 2.34 0 2 C0 1.34 0 0.68 0 0 Z " fill="#0C9AE2" transform="translate(200,191)"/>
<path d="M0 0 C5.87039235 0.29351962 9.85599229 3.02412626 14 7 C14.33 7.99 14.66 8.98 15 10 C12 9 12 9 9.75 6.625 C6.56243263 3.58232205 4.08514506 2.52191679 0 1 C0 0.67 0 0.34 0 0 Z " fill="#E9F7F8" transform="translate(281,311)"/>
<path d="M0 0 C0.66 0 1.32 0 2 0 C0.59155282 3.21524305 -1.10344786 5.32183868 -3.625 7.75 C-4.57246094 8.67039062 -4.57246094 8.67039062 -5.5390625 9.609375 C-6.02117187 10.06828125 -6.50328125 10.5271875 -7 11 C-7.66 10.67 -8.32 10.34 -9 10 C-7.88200014 8.66079162 -6.75538103 7.32877444 -5.625 6 C-4.99851562 5.2575 -4.37203125 4.515 -3.7265625 3.75 C-3.15679687 3.1725 -2.58703125 2.595 -2 2 C-1.34 2 -0.68 2 0 2 C0 1.34 0 0.68 0 0 Z " fill="#76BBDE" transform="translate(321,94)"/>
<path d="M0 0 C0.81210938 0.56847656 0.81210938 0.56847656 1.640625 1.1484375 C-0.10405872 1.84931906 -1.85538661 2.53367759 -3.609375 3.2109375 C-4.58390625 3.59378906 -5.5584375 3.97664063 -6.5625 4.37109375 C-9.39944895 5.15957537 -10.65347052 5.17281562 -13.359375 4.1484375 C-11.61908198 3.25428695 -9.8666735 2.38368572 -8.109375 1.5234375 C-7.13484375 1.03617187 -6.1603125 0.54890625 -5.15625 0.046875 C-2.359375 -0.8515625 -2.359375 -0.8515625 0 0 Z " fill="#F8F9F9" transform="translate(171.359375,419.8515625)"/>
<path d="M0 0 C0.66 0 1.32 0 2 0 C1.54917531 1.46067199 1.08906463 2.91848032 0.625 4.375 C0.36976563 5.18710937 0.11453125 5.99921875 -0.1484375 6.8359375 C-1 9 -1 9 -3 11 C-2.69217504 9.35328588 -2.37860766 7.70764424 -2.0625 6.0625 C-1.88847656 5.14597656 -1.71445312 4.22945313 -1.53515625 3.28515625 C-1 1 -1 1 0 0 Z " fill="#F6F9FA" transform="translate(404,408)"/>
<path d="M0 0 C-5.625 3 -5.625 3 -9 3 C-9 2.34 -9 1.68 -9 1 C-2.25 -1.125 -2.25 -1.125 0 0 Z " fill="#D5E7EE" transform="translate(164,422)"/>
<path d="M0 0 C1.98 1.65 3.96 3.3 6 5 C5.01 5.33 4.02 5.66 3 6 C1.68 4.68 0.36 3.36 -1 2 C-0.67 1.34 -0.34 0.68 0 0 Z " fill="#D1E6EE" transform="translate(105,406)"/>
</svg>
